<?xml version="1.0" encoding="utf-8"?>
<svg xmlns="http://www.w3.org/2000/svg" viewBox="177.3 -107.066 355.247 308.997">
  <ellipse style="fill: rgb(250, 249, 247);" cx="356.861" cy="58.612" rx="189.963" ry="180.117"/>
  <g id="mark" transform="matrix(0.25, 0, 0, 0.25, -348.260905, -236.168662)">
    <g transform="translate(0.000000,3072.000000) scale(0.100000,-0.100000)">
      <path d="M28082 25568 c-32 -40 -85 -109 -117 -153 -32 -44 -88 -116 -125 -160 -36 -44 -103 -129 -148 -190 -46 -60 -125 -164 -177 -230 -136 -174 -240 -309 -378 -489 -67 -87 -158 -204 -202 -260 -78 -98 -260 -338 -320 -420 -16 -23 -55 -75 -87 -116 -33 -41 -111 -145 -176 -229 -220 -291 -218 -290 -319 -163 -34 42 -99 124 -145 181 -46 58 -119 152 -163 210 -45 58 -130 169 -190 247 -61 78 -142 186 -182 240 -156 215 -156 215 -325 -7 -40 -54 -116 -150 -168 -215 -53 -66 -113 -144 -134 -174 -22 -30 -73 -97 -115 -149 -42 -52 -94 -121 -116 -152 -59 -84 -157 -209 -265 -339 -53 -63 -107 -131 -120 -150 -13 -19 -78 -104 -144 -189 -67 -85 -150 -193 -186 -241 -36 -47 -92 -120 -126 -161 -33 -41 -94 -119 -134 -174 -41 -55 -108 -143 -150 -195 -42 -52 -111 -142 -153 -200 -42 -58 -115 -152 -161 -210 -47 -58 -103 -130 -124 -160 -22 -30 -69 -93 -106 -140 -37 -47 -109 -139 -161 -205 -52 -66 -135 -174 -185 -240 -49 -66 -116 -152 -147 -192 -32 -39 -96 -122 -143 -184 -47 -61 -102 -132 -122 -158 -21 -25 -86 -109 -146 -186 -138 -179 -176 -229 -351 -454 -482 -620 -501 -653 -446 -761 93 -182 294 -138 455 100 22 32 74 100 117 151 112 133 224 275 269 339 100 144 145 179 158 125 4 -14 6 -913 6 -1998 0 -1084 0 -2042 0 -2127 0 -219 16 -229 104 -72 28 50 99 151 157 224 58 73 114 146 125 163 19 28 19 79 21 2215 2 1202 5 2195 8 2207 3 13 52 80 108 150 56 71 152 192 212 271 138 180 148 192 215 277 31 39 78 102 105 140 27 39 104 138 170 220 66 83 166 211 222 285 57 74 123 160 148 190 25 30 71 91 102 135 31 44 96 132 145 195 49 63 121 157 161 209 39 52 88 113 108 135 42 47 148 184 292 376 55 74 128 169 162 210 34 41 74 95 90 120 15 24 69 94 119 154 50 61 109 136 132 166 22 30 58 79 79 107 60 81 93 81 150 0 16 -23 111 -144 210 -268 338 -424 375 -473 375 -500 0 -31 -106 -181 -281 -398 -243 -299 -370 -482 -383 -550 -29 -151 180 -279 315 -192 69 44 99 83 694 877 22 29 67 86 100 126 33 39 85 107 115 149 30 42 84 114 119 160 35 46 105 138 155 204 50 66 124 163 166 215 42 52 114 145 160 205 46 61 111 146 144 189 75 98 120 156 216 282 41 55 102 133 135 174 34 41 92 118 129 170 37 52 99 137 139 188 40 51 95 123 122 160 75 101 216 275 234 289 44 34 71 11 231 -200 71 -95 161 -212 200 -262 39 -49 102 -133 140 -185 39 -52 106 -142 150 -200 44 -58 133 -175 198 -260 64 -85 135 -175 157 -201 22 -25 68 -83 103 -130 34 -46 103 -136 152 -199 50 -63 116 -150 147 -194 32 -43 99 -132 148 -198 50 -65 119 -158 155 -207 36 -48 98 -128 139 -176 41 -48 117 -145 170 -214 52 -69 133 -175 179 -236 47 -60 142 -187 213 -281 177 -237 233 -282 336 -271 146 15 228 166 160 293 -24 44 -299 412 -358 479 -39 44 -196 251 -248 328 -48 70 -48 69 221 409 51 64 158 198 237 298 148 188 159 198 191 184 23 -11 197 -227 422 -526 24 -31 106 -138 183 -239 77 -100 162 -212 189 -248 27 -36 72 -93 100 -127 28 -33 78 -96 111 -138 33 -43 112 -144 176 -225 64 -81 136 -176 160 -212 24 -35 76 -103 117 -151 41 -48 118 -145 171 -217 88 -120 201 -268 324 -425 26 -33 73 -95 104 -136 31 -41 98 -127 148 -190 50 -63 115 -149 145 -190 30 -41 103 -135 162 -209 72 -89 110 -146 115 -170 20 -95 9 -6422 -11 -6437 -15 -11 -58 -14 -183 -14 -212 0 -203 -8 -203 171 0 240 -45 854 -81 1119 -89 644 -237 1250 -450 1843 -27 75 -49 142 -49 148 0 23 -144 355 -234 539 -155 318 -368 691 -524 915 -30 44 -69 100 -86 125 -36 53 -197 263 -258 337 -24 29 -70 85 -103 125 -255 312 -785 684 -1006 706 -75 7 -79 -4 -80 -238 -2 -686 -8 -716 -149 -749 -103 -25 -311 -127 -410 -202 -19 -14 -78 -58 -130 -97 -188 -140 -297 -303 -393 -589 -49 -147 -85 -201 -206 -307 -315 -277 -325 -302 -245 -599 137 -503 436 -743 1079 -863 319 -59 425 -145 425 -343 0 -297 -247 -645 -755 -1066 -232 -192 -642 -436 -940 -560 -44 -18 -123 -51 -175 -73 -218 -90 -799 -244 -1060 -281 -41 -6 -124 -18 -185 -26 -147 -21 -412 -34 -676 -35 -262 0 -245 -10 -264 152 -36 294 -38 308 -102 508 -150 478 -481 959 -826 1205 -188 134 -219 153 -370 229 -368 184 -950 279 -1320 215 -130 -22 -129 -15 19 199 212 304 347 545 496 879 47 106 62 115 156 85 405 -127 825 11 1077 353 32 44 62 85 67 91 114 155 170 714 108 1079 -90 529 -232 744 -425 643 -107 -57 -131 -156 -75 -310 233 -637 142 -1278 -204 -1442 -319 -152 -748 34 -852 369 -101 325 115 1185 408 1620 514 766 1688 1020 2367 513 24 -18 109 -101 190 -186 272 -286 353 -319 816 -329 254 -6 252 -5 284 -91 58 -161 163 -252 375 -328 114 -40 118 -57 69 -284 -187 -869 -1231 -1176 -1864 -547 -130 129 -210 152 -312 87 -218 -138 -10 -448 436 -652 186 -84 184 -74 39 -221 -157 -160 -209 -241 -294 -452 -67 -168 -58 -625 17 -855 13 -41 31 -103 40 -137 8 -34 38 -122 66 -195 87 -225 177 -502 194 -595 47 -257 48 -270 49 -613 0 -298 -2 -349 -22 -465 -32 -192 -28 -194 262 -153 148 21 183 161 172 688 -5 266 -10 319 -45 485 -11 50 -24 115 -30 145 -15 75 -77 299 -106 385 -41 121 -125 356 -161 452 -104 279 -110 620 -14 820 108 228 316 367 810 543 259 93 316 116 417 173 407 229 640 569 752 1098 89 420 52 971 -71 1062 -54 39 -54 39 -578 38 -737 -2 -793 7 -920 144 -191 207 -274 277 -482 408 -116 73 -369 176 -483 196 -244 42 -253 43 -488 38 -153 -3 -261 -10 -317 -21 -47 -8 -110 -20 -141 -26 -612 -112 -1183 -538 -1487 -1110 -111 -208 -257 -599 -282 -754 -6 -36 -15 -77 -20 -91 -138 -363 -88 -899 111 -1198 67 -100 70 -120 39 -210 -11 -31 -20 -61 -20 -68 0 -101 -281 -591 -522 -911 -24 -31 -56 -75 -73 -98 -16 -22 -48 -64 -71 -93 -22 -29 -59 -79 -81 -112 -23 -33 -61 -83 -85 -111 -53 -62 -202 -245 -304 -374 -447 -562 -650 -1132 -694 -1945 -13 -248 -13 -288 3 -309 20 -27 3520 -25 3551 2 23 21 17 345 -7 369 -11 11 -285 14 -1555 13 -1541 0 -1541 0 -1557 24 -15 22 -15 37 -1 168 53 480 177 828 429 1203 87 130 226 286 297 333 293 194 833 247 1317 129 184 -45 441 -160 551 -246 26 -20 72 -54 102 -75 84 -60 184 -153 253 -235 34 -40 83 -99 110 -130 256 -302 411 -793 434 -1378 5 -140 9 -165 25 -179 19 -18 737 -23 1038 -8 691 34 1583 280 2170 600 58 31 130 70 160 86 120 62 275 170 610 425 442 335 814 902 836 1273 28 456 -208 690 -801 796 -387 70 -522 158 -658 427 -87 173 -82 198 61 322 201 173 294 302 338 471 71 273 144 380 347 507 134 84 369 176 541 212 143 30 166 77 178 370 10 247 12 260 33 269 98 37 598 -542 891 -1033 34 -58 83 -137 107 -176 115 -181 147 -242 292 -552 85 -182 155 -336 155 -342 0 -6 20 -57 44 -114 67 -158 231 -666 285 -882 16 -66 34 -132 39 -146 27 -69 122 -628 157 -924 14 -115 32 -262 40 -325 38 -304 41 -821 4 -852 -20 -17 -114 -18 -1659 -18 -1745 0 -1667 2 -1745 -50 -22 -15 -61 -36 -86 -47 -26 -12 -92 -46 -148 -77 -55 -31 -156 -79 -223 -107 -170 -71 -203 -93 -169 -113 29 -19 5263 -10 5277 8 11 16 13 432 9 2720 -5 3013 -2 3536 25 3536 23 0 117 -108 303 -345 25 -33 69 -87 97 -120 27 -33 76 -98 109 -145 134 -190 206 -246 306 -238 148 12 236 149 173 267 -22 40 -49 77 -245 329 -48 63 -117 153 -153 201 -103 138 -203 269 -282 367 -40 50 -98 124 -128 164 -30 39 -83 106 -118 148 -34 43 -122 156 -194 252 -72 96 -149 195 -170 220 -21 25 -95 122 -165 215 -70 94 -145 193 -167 221 -23 28 -95 121 -161 208 -137 179 -335 434 -427 549 -35 43 -81 102 -103 132 -22 30 -86 114 -142 187 -57 73 -158 205 -225 294 -68 88 -157 203 -199 255 -41 51 -104 132 -139 179 -36 47 -101 130 -145 186 -44 55 -110 141 -148 190 -37 49 -115 150 -172 224 -58 74 -127 167 -154 205 -42 60 -191 254 -351 457 -80 102 -96 93 -272 -140 -92 -123 -157 -206 -273 -352 -24 -30 -79 -100 -122 -155 -85 -107 -199 -250 -286 -355 -82 -101 -77 -104 -274 159 -43 56 -103 134 -133 171 -52 64 -111 141 -196 255 -113 150 -237 312 -310 405 -199 252 -329 419 -368 473 -22 32 -75 101 -116 155 -133 171 -332 429 -455 591 -264 346 -241 331 -333 219z" style="fill: rgb(52, 52, 52);"/>
      <path d="M26464 19685 c-354 -77 -547 -615 -220 -615 82 0 140 47 171 139 41 125 147 168 296 121 256 -83 380 98 171 248 -147 105 -275 138 -418 107z" style="fill: rgb(52, 52, 52);"/>
    </g>
  </g>
</svg>